<svg version="1.1" xmlns="http://www.w3.org/2000/svg" xmlns:xlink="http://www.w3.org/1999/xlink" width="16" height="16" viewBox="0,0,16,16">
	<desc>folder_shared icon - Licensed under Apache License v2.0 (http://www.apache.org/licenses/LICENSE-2.0) - Created with Iconfu.com - Derivative work of Material icons (Copyright Google Inc.)</desc>
	<g fill="#03b8e5" fill-rule="nonzero" style="mix-blend-mode: normal">
		<path d="M14.67,5.33v6.67c0,0.73 -0.6,1.33 -1.33,1.33h-10.67c-0.73,0 -1.33,-0.6 -1.33,-1.33l0.01,-8c0,-0.73 0.59,-1.33 1.33,-1.33h4l1.33,1.33h5.33c0.73,0 1.33,0.6 1.33,1.33zM12.67,10.67c0,-0.89 -1.78,-1.33 -2.67,-1.33c-0.89,0 -2.67,0.45 -2.67,1.33v0.67h5.33zM8.67,7.33c0,0.73 0.6,1.33 1.33,1.33c0.73,0 1.33,-0.6 1.33,-1.33c0,-0.73 -0.6,-1.33 -1.33,-1.33c-0.73,0 -1.33,0.6 -1.33,1.33z"/>
	</g>
</svg>